<svg
              width="19"
              height="19"
              viewBox="0 0 19 19"
              fill="none"
              focusable="false"
              class="chakra-icon css-1jxgtto"
            >
              <path
                d="M12.5915 12.7994H5.94279C5.55639 12.7994 5.24994 13.1048 5.24994 13.4899C5.24994 13.8749 5.55639 14.1803 5.94279 14.1803H12.5915C12.9778 14.1803 13.2843 13.8749 13.2843 13.4899C13.2843 13.1048 12.9778 12.7994 12.5915 12.7994Z"
                fill="currentColor"
              ></path>
              <path
                d="M5.26282 9.65271C5.26282 10.0378 5.56927 10.3431 5.95566 10.3431H12.6043C12.9907 10.3431 13.2972 10.0378 13.2972 9.65271C13.2972 9.26766 12.9907 8.96228 12.6043 8.96228H5.95566C5.56927 8.96228 5.26282 9.26766 5.26282 9.65271Z"
                fill="currentColor"
              ></path>
              <path
                d="M5.95566 6.50597H8.48722C8.87362 6.50597 9.18007 6.20059 9.18007 5.81555C9.18007 5.4305 8.87362 5.12512 8.48722 5.12512H5.95566C5.56927 5.12512 5.26282 5.4305 5.26282 5.81555C5.26282 6.20059 5.56927 6.50597 5.95566 6.50597Z"
                fill="currentColor"
              ></path>
              <path
                d="M16.5351 4.91265C17.8941 4.91265 19 3.81062 19 2.45632C19 1.10203 17.8941 0 16.5351 0C15.176 0 14.0701 1.10203 14.0701 2.45632C14.0701 3.81062 15.176 4.91265 16.5351 4.91265ZM16.5351 1.39413C17.1346 1.39413 17.6143 1.87212 17.6143 2.4696C17.6143 3.06709 17.1346 3.54507 16.5351 3.54507C15.9355 3.54507 15.4558 3.06709 15.4558 2.4696C15.4558 1.87212 15.9355 1.39413 16.5351 1.39413Z"
                fill="currentColor"
              ></path>
              <path
                d="M17.5877 6.46615C17.2013 6.46615 16.8948 6.77153 16.8948 7.15658V13.6094C16.8948 16.0525 15.4025 17.6325 13.0975 17.6325H5.18303C2.83801 17.6325 1.38569 16.0923 1.38569 13.6094V6.2006C1.38569 3.75756 2.87798 2.17754 5.18303 2.17754H11.8717C12.2581 2.17754 12.5645 1.87216 12.5645 1.48712C12.5645 1.10207 12.2581 0.796691 11.8717 0.796691H5.18303C2.07854 0.783414 0 2.96091 0 6.18733V13.5961C0 16.8358 2.07854 19 5.18303 19H13.0975C16.202 19 18.2805 16.8358 18.2805 13.6094V7.15658C18.2805 6.77153 17.9741 6.46615 17.5877 6.46615Z"
                fill="currentColor"
              ></path>
            </svg>